<?xml version="1.0" encoding="UTF-8"?>
<svg id="Capa_1" data-name="Capa 1" xmlns="http://www.w3.org/2000/svg" viewBox="0 0 143.02 143.61">
  <defs>
    <style>
      .cls-1 {
        fill: #e55a25;
      }

      .cls-2 {
        fill: #e97423;
      }
    </style>
  </defs>
  <path class="cls-1" d="M63.8.02c-.88-.02-1.88-.06-2.84.21-8.34,2.32-32.55,12.55-32.55,12.55l9.95,39.9L85.91,2.42,63.8.02Z"/>
  <path class="cls-1" d="M143.02,45.7l-54.52,32.55s39.37.7,51.18.9c1.82.03,3.31-1.44,3.31-3.26l.03-30.19Z"/>
  <path class="cls-2" d="M39.1,61.03s-9.73,23.98-9.73,23.98c0,0,16.53,19.75,16.53,19.75l30.05-23.87-36.85-19.86Z"/>
  <polygon class="cls-2" points="93.16 36.52 84.73 74.92 136.62 43.4 93.16 36.52"/>
  <path class="cls-2" d="M82.91,83.11l23.54,60.5s-.32-39.82-.32-39.75l15.61.52c6.78-.17,10.44-3.21,13.77-8.62,1.73-2.81,3.45-5.79,4.68-7.94.81-1.41-.19-3.17-1.81-3.21l-55.46-1.49Z"/>
  <polygon class="cls-1" points="92.42 5.23 96.26 31.65 140.89 38.8 92.42 5.23"/>
  <polygon class="cls-1" points="0 46.02 3.61 70.31 25.83 80.79 34.86 58.25 0 46.02"/>
  <polygon class="cls-1" points="44.15 58.76 78.97 76.49 86.74 41.09 44.15 58.76"/>
  <polygon class="cls-2" points="87.35 7.2 41.86 55.99 91.18 33.53 87.35 7.2"/>
  <polygon class="cls-2" points="23.83 16.28 1 40.71 33.17 53.69 23.83 16.28"/>
  <path class="cls-1" d="M78.28,85.8l-28.82,21.42s21.45-1.71,21.46-1.71c0,0,21.2,15.93,21.2,15.93l-13.84-35.64Z"/>
</svg>