<?xml version="1.0" encoding="UTF-8"?>
<svg id="Capa_1" data-name="Capa 1" xmlns="http://www.w3.org/2000/svg" viewBox="0 0 560 114.09">
  <defs>
    <style>
      .cls-1 {
        fill: #877671;
      }

      .cls-2 {
        fill: #e55a25;
      }
    </style>
  </defs>
  <path class="cls-1" d="M50.17,48.48c0-4.02.75-7.79,2.26-11.29,1.51-3.5,3.6-6.56,6.28-9.18,2.67-2.62,5.82-4.69,9.45-6.2,3.63-1.51,7.56-2.26,11.8-2.26s8.18.75,11.82,2.26c3.64,1.51,6.8,3.56,9.45,6.17,2.66,2.6,4.75,5.66,6.27,9.18,1.53,3.52,2.29,7.29,2.29,11.31v1.24h-.05l-.16,1.35h-51.28c.32,2.95,1.15,5.61,2.48,8,1.33,2.39,2.98,4.42,4.95,6.09,1.98,1.67,4.19,2.96,6.65,3.88,2.46.91,5,1.37,7.62,1.37,2.01,0,3.93-.24,5.76-.73,1.83-.48,3.53-1.18,5.09-2.07,1.56-.9,2.97-1.98,4.23-3.26,1.26-1.27,2.32-2.68,3.18-4.23h9.05c-1.04,2.4-2.43,4.67-4.18,6.79-1.74,2.12-3.79,3.96-6.14,5.52s-4.96,2.79-7.84,3.69c-2.87.9-5.94,1.35-9.21,1.35-4.24,0-8.17-.75-11.8-2.26-3.63-1.51-6.78-3.57-9.45-6.2-2.68-2.62-4.77-5.69-6.28-9.21-1.51-3.52-2.26-7.29-2.26-11.31M80.02,26.4c-2.84,0-5.48.47-7.92,1.4-2.44.93-4.61,2.22-6.49,3.85-1.88,1.63-3.45,3.58-4.69,5.84-1.24,2.26-2.06,4.72-2.45,7.38h42.83c-.4-2.62-1.21-5.06-2.45-7.33-1.24-2.26-2.79-4.22-4.63-5.87-1.85-1.65-3.98-2.94-6.41-3.88-2.42-.93-5.02-1.4-7.78-1.4"/>
  <path class="cls-1" d="M153.31,28.5h-5.87c-2.87,0-5.5.43-7.89,1.29s-4.44,2.14-6.14,3.82c-1.71,1.69-3.04,3.79-3.99,6.3-.95,2.51-1.43,5.42-1.43,8.73v27.26h-8.24V21.06h6.9l.86,9.16c.93-1.33,2.06-2.55,3.37-3.66,1.31-1.11,2.79-2.07,4.42-2.88,1.63-.81,3.44-1.45,5.41-1.91,1.97-.46,4.09-.7,6.36-.7h6.25v7.43Z"/>
  <path class="cls-1" d="M156.46,48.48c0-4.02.75-7.79,2.26-11.29,1.51-3.5,3.6-6.56,6.28-9.18,2.67-2.62,5.82-4.69,9.45-6.2,3.63-1.51,7.56-2.26,11.8-2.26s8.18.75,11.82,2.26c3.64,1.51,6.8,3.56,9.45,6.17,2.66,2.6,4.75,5.66,6.27,9.18,1.53,3.52,2.29,7.29,2.29,11.31v1.24h-.05l-.16,1.35h-51.28c.32,2.95,1.15,5.61,2.48,8,1.33,2.39,2.98,4.42,4.95,6.09,1.98,1.67,4.19,2.96,6.65,3.88,2.46.91,5,1.37,7.62,1.37,2.01,0,3.93-.24,5.76-.73,1.83-.48,3.53-1.18,5.09-2.07,1.56-.9,2.97-1.98,4.23-3.26,1.26-1.27,2.32-2.68,3.18-4.23h9.05c-1.04,2.4-2.43,4.67-4.18,6.79-1.74,2.12-3.79,3.96-6.14,5.52s-4.96,2.79-7.84,3.69c-2.87.9-5.94,1.35-9.21,1.35-4.24,0-8.17-.75-11.8-2.26-3.63-1.51-6.78-3.57-9.45-6.2-2.68-2.62-4.77-5.69-6.28-9.21-1.51-3.52-2.26-7.29-2.26-11.31M186.31,26.4c-2.84,0-5.48.47-7.92,1.4-2.44.93-4.61,2.22-6.49,3.85-1.88,1.63-3.45,3.58-4.69,5.84-1.24,2.26-2.06,4.72-2.45,7.38h42.83c-.4-2.62-1.21-5.06-2.45-7.33-1.24-2.26-2.79-4.22-4.63-5.87-1.85-1.65-3.98-2.94-6.41-3.88-2.42-.93-5.02-1.4-7.78-1.4"/>
  <path class="cls-1" d="M285.73,48.48c0,4.02-.74,7.79-2.21,11.31-1.48,3.52-3.51,6.59-6.11,9.21-2.61,2.62-5.69,4.69-9.27,6.2-3.58,1.51-7.48,2.26-11.72,2.26-2.44,0-4.78-.28-7-.86-2.23-.57-4.29-1.35-6.2-2.32-1.9-.97-3.64-2.12-5.23-3.45s-2.95-2.75-4.1-4.26l-.59,9.32h-7.22V.05h8.3v30.06c1.19-1.54,2.55-2.96,4.09-4.26,1.54-1.29,3.26-2.4,5.15-3.34,1.88-.93,3.91-1.66,6.06-2.18,2.16-.52,4.45-.78,6.9-.78,4.24,0,8.13.75,11.69,2.26,3.56,1.51,6.63,3.58,9.21,6.2,2.59,2.62,4.61,5.68,6.06,9.18,1.45,3.5,2.18,7.27,2.18,11.29M277.43,48.48c0-3.09-.57-5.95-1.7-8.59-1.13-2.64-2.67-4.92-4.63-6.84-1.96-1.92-4.25-3.43-6.87-4.53-2.62-1.1-5.44-1.64-8.46-1.64s-5.84.55-8.46,1.64c-2.62,1.09-4.92,2.61-6.9,4.53-1.98,1.92-3.53,4.2-4.66,6.84-1.13,2.64-1.7,5.5-1.7,8.59s.57,6.01,1.7,8.65c1.13,2.64,2.67,4.93,4.63,6.87,1.96,1.94,4.26,3.45,6.89,4.53,2.64,1.08,5.45,1.61,8.43,1.61s5.83-.55,8.46-1.64c2.62-1.09,4.92-2.6,6.9-4.52,1.97-1.92,3.53-4.2,4.66-6.84,1.13-2.64,1.7-5.52,1.7-8.65"/>
  <path class="cls-1" d="M329.34,28.5h-5.87c-2.87,0-5.5.43-7.89,1.29-2.39.86-4.44,2.14-6.14,3.82-1.71,1.69-3.04,3.79-3.99,6.3-.95,2.51-1.43,5.42-1.43,8.73v27.26h-8.24V21.06h6.89l.86,9.16c.93-1.33,2.05-2.55,3.37-3.66,1.31-1.11,2.78-2.07,4.42-2.88,1.64-.81,3.44-1.45,5.41-1.91,1.98-.46,4.09-.7,6.36-.7h6.25v7.43Z"/>
  <path class="cls-1" d="M332.38,48.48c0-4.02.73-7.78,2.18-11.29,1.46-3.5,3.48-6.56,6.09-9.18,2.6-2.62,5.7-4.69,9.29-6.2,3.59-1.51,7.51-2.26,11.74-2.26,2.48,0,4.82.29,7.03.86,2.21.58,4.26,1.35,6.17,2.32,1.9.97,3.64,2.12,5.2,3.45,1.56,1.33,2.92,2.75,4.07,4.26l.59-9.38h7.22v54.84h-7.22l-.65-9.32c-1.15,1.51-2.5,2.92-4.07,4.23-1.56,1.31-3.3,2.46-5.23,3.45-1.92.99-3.98,1.76-6.19,2.32-2.21.56-4.54.83-6.98.83-4.24,0-8.14-.75-11.72-2.26-3.58-1.51-6.66-3.57-9.27-6.17-2.6-2.6-4.63-5.66-6.09-9.18-1.45-3.52-2.18-7.29-2.18-11.31M340.68,48.48c0,3.12.57,6.01,1.7,8.65,1.13,2.64,2.67,4.92,4.63,6.84,1.96,1.92,4.26,3.43,6.89,4.52,2.64,1.1,5.45,1.64,8.43,1.64s5.83-.54,8.46-1.61c2.62-1.08,4.92-2.59,6.89-4.53,1.97-1.94,3.53-4.23,4.66-6.87,1.13-2.64,1.7-5.52,1.7-8.65s-.57-5.95-1.72-8.59c-1.15-2.64-2.7-4.92-4.66-6.84-1.96-1.92-4.26-3.43-6.9-4.53-2.64-1.1-5.45-1.64-8.43-1.64s-5.85.55-8.48,1.64c-2.64,1.09-4.93,2.61-6.87,4.53-1.94,1.92-3.47,4.2-4.61,6.84s-1.7,5.5-1.7,8.59"/>
  <rect class="cls-1" x="400.49" width="16.65" height="75.9"/>
  <path class="cls-1" d="M424.55,48.54c0-4.09.7-7.94,2.1-11.55,1.4-3.61,3.39-6.76,5.98-9.45,2.59-2.69,5.73-4.82,9.43-6.38,3.7-1.56,7.85-2.34,12.44-2.34,3.7,0,7.02.6,9.97,1.81,2.94,1.2,5.44,2.63,7.49,4.28l.7-4.31h14.17v55.86h-14.17l-.75-4.26c-2.08,1.65-4.59,3.07-7.52,4.26-2.93,1.18-6.22,1.78-9.88,1.78-4.56,0-8.69-.78-12.39-2.34-3.7-1.56-6.85-3.68-9.45-6.36-2.61-2.67-4.61-5.82-6.01-9.43-1.4-3.61-2.1-7.46-2.1-11.55M441.19,48.48c0,2.33.4,4.45,1.19,6.36.79,1.9,1.86,3.54,3.2,4.9,1.35,1.37,2.93,2.42,4.74,3.15,1.81.74,3.74,1.1,5.79,1.1s3.98-.37,5.79-1.1c1.81-.74,3.39-1.78,4.74-3.12,1.35-1.35,2.4-2.98,3.18-4.9.77-1.92,1.16-4.05,1.16-6.38s-.4-4.39-1.19-6.28c-.79-1.88-1.86-3.5-3.2-4.85s-2.93-2.39-4.74-3.13c-1.82-.74-3.75-1.1-5.79-1.1s-4.03.37-5.84,1.1c-1.82.74-3.39,1.78-4.71,3.13-1.33,1.35-2.38,2.96-3.15,4.85-.77,1.89-1.16,3.98-1.16,6.28"/>
  <path class="cls-1" d="M560,48c0,4.1-.7,7.95-2.1,11.55-1.4,3.61-3.4,6.77-6.01,9.48-2.61,2.71-5.74,4.85-9.43,6.41-3.68,1.56-7.8,2.34-12.36,2.34-1.83,0-3.57-.16-5.23-.49s-3.21-.77-4.69-1.35c-1.47-.57-2.84-1.24-4.1-1.99-1.26-.75-2.4-1.54-3.45-2.37l-.75,4.31h-14.17V0h16.65v23.22c2.01-1.47,4.33-2.67,6.98-3.61,2.64-.93,5.65-1.4,9.02-1.4,4.6,0,8.72.79,12.39,2.37,3.66,1.58,6.77,3.72,9.32,6.41,2.55,2.69,4.51,5.84,5.87,9.45,1.37,3.61,2.05,7.46,2.05,11.55M543.36,47.94c0-2.3-.39-4.39-1.16-6.28-.77-1.88-1.82-3.5-3.15-4.85-1.33-1.35-2.9-2.39-4.71-3.13-1.82-.74-3.76-1.1-5.85-1.1s-3.98.37-5.79,1.1-3.39,1.78-4.74,3.13c-1.34,1.35-2.41,2.96-3.2,4.85-.79,1.89-1.19,3.98-1.19,6.28s.39,4.46,1.16,6.38c.77,1.92,1.83,3.55,3.18,4.9,1.35,1.35,2.92,2.39,4.72,3.12,1.79.74,3.73,1.1,5.82,1.1s3.98-.37,5.79-1.1c1.81-.74,3.39-1.79,4.74-3.15,1.34-1.36,2.41-3,3.2-4.9.79-1.9,1.19-4.02,1.19-6.36"/>
  <path class="cls-2" d="M8.24,93.23c6.93,0,10.27,4.97,10.27,10.03s-3.1,10.45-10.27,10.45H1.01v-20.48h7.23ZM3.06,111.8h5.18c5.7,0,8.28-4.45,8.19-8.57-.09-3.98-2.66-8.08-8.19-8.08H3.06v16.65Z"/>
  <path class="cls-2" d="M40.25,108.97h-11.88l-2.11,4.74h-2.16l9.19-20.48h2.05l9.19,20.48h-2.16l-2.11-4.74ZM29.19,107.09h10.24l-5.12-11.65-5.12,11.65Z"/>
  <polygon class="cls-2" points="55.2 95.16 47.97 95.16 47.97 93.22 64.47 93.22 64.47 95.16 57.24 95.16 57.24 113.71 55.2 113.71 55.2 95.16"/>
  <path class="cls-2" d="M90.63,103.52c-.03,5.35-3.42,10.56-10.36,10.56s-10.39-5.21-10.39-10.59c0-5.76,3.75-10.62,10.39-10.62,6.94.03,10.39,5.18,10.36,10.65M80.27,112.15c5.59,0,8.28-4.24,8.31-8.63,0-4.59-2.72-8.69-8.31-8.72-5.5,0-8.4,3.89-8.34,8.72.06,4.48,2.75,8.63,8.34,8.63"/>
  <path class="cls-2" d="M112.07,97.44c-1.2-1.93-3.72-2.57-5.88-2.6-2.52,0-5.76.73-5.76,3.75,0,2.4,2.63,3.04,5.82,3.6,4.04.7,8.13,1.61,8.13,5.97-.03,4.62-4.48,5.88-8.19,5.88-3.45,0-6.96-1.26-8.54-4.54l1.78-.97c1.4,2.63,4.27,3.54,6.76,3.54s6.12-.67,6.12-3.95c.03-2.78-3.07-3.48-6.26-4.04-3.86-.67-7.67-1.52-7.67-5.5-.06-4.3,4.33-5.68,7.78-5.68,2.81,0,5.82.76,7.64,3.57l-1.73.97Z"/>
  <path class="cls-2" d="M151.65,110.93c-2.08,2.08-4.71,3.1-7.46,3.1-7.08,0-10.62-4.74-10.65-10.45-.03-5.59,3.54-10.65,10.65-10.65,2.72,0,5.47.97,7.26,3.07l-1.26,1.26c-1.67-1.64-3.8-2.46-6-2.46-5.7,0-8.6,4.21-8.6,8.75,0,4.8,2.9,8.57,8.6,8.57,2.2,0,4.51-.88,6.14-2.52l1.32,1.32Z"/>
  <path class="cls-2" d="M178.8,103.52c-.03,5.35-3.42,10.56-10.36,10.56s-10.39-5.21-10.39-10.59c0-5.76,3.75-10.62,10.39-10.62,6.94.03,10.39,5.18,10.36,10.65M168.45,112.15c5.59,0,8.28-4.24,8.31-8.63,0-4.59-2.72-8.69-8.31-8.72-5.5,0-8.4,3.89-8.34,8.72.06,4.48,2.75,8.63,8.34,8.63"/>
  <polygon class="cls-2" points="202 109.84 201.89 103.05 201.89 93.22 203.94 93.22 203.94 113.71 202.71 113.71 189.45 97.23 189.51 103.29 189.51 113.71 187.46 113.71 187.46 93.22 188.75 93.22 202 109.84"/>
  <path class="cls-2" d="M226.7,97.44c-1.2-1.93-3.72-2.57-5.88-2.6-2.52,0-5.76.73-5.76,3.75,0,2.4,2.63,3.04,5.82,3.6,4.04.7,8.13,1.61,8.13,5.97-.03,4.62-4.48,5.88-8.19,5.88-3.45,0-6.96-1.26-8.54-4.54l1.78-.97c1.4,2.63,4.27,3.54,6.76,3.54s6.12-.67,6.12-3.95c.03-2.78-3.07-3.48-6.26-4.04-3.86-.67-7.67-1.52-7.67-5.5-.06-4.3,4.33-5.68,7.78-5.68,2.81,0,5.82.76,7.64,3.57l-1.73.97Z"/>
  <polygon class="cls-2" points="242.38 95.16 235.15 95.16 235.15 93.22 251.65 93.22 251.65 95.16 244.42 95.16 244.42 113.71 242.38 113.71 242.38 95.16"/>
  <path class="cls-2" d="M276.05,113.71h-2.66l-6.79-7.55h-5.29v7.55h-2.05v-20.48h9.19c4.56,0,6.76,3.04,6.79,6.5.03,3.19-1.84,6.09-6.17,6.29l6.99,7.69ZM261.31,95.16v9.07h7.02c3.28,0,4.86-1.93,4.86-4.51s-1.58-4.56-4.74-4.56h-7.14Z"/>
  <path class="cls-2" d="M300.3,93.22v12.49c0,5.53-3.63,8.19-8.08,8.19s-8.19-2.66-8.19-8.19v-12.49h2.05v12.49c0,3.89,2.66,6.29,6.14,6.29,3.1,0,6.03-2.02,6.03-6.29v-12.49h2.05Z"/>
  <polygon class="cls-2" points="316.89 103.47 323.5 93.22 325.9 93.22 325.9 93.28 317.91 105.46 317.91 113.71 315.87 113.71 315.87 105.46 308 93.28 308 93.22 310.37 93.22 316.89 103.47"/>
  <polygon class="cls-2" points="348.43 113.71 333.74 113.71 333.74 93.22 348.17 93.22 348.17 95.16 335.79 95.16 335.79 102.5 347.61 102.5 347.61 104.4 335.79 104.4 335.79 111.77 348.43 111.77 348.43 113.71"/>
  <polygon class="cls-2" points="371.75 109.84 371.63 103.05 371.63 93.22 373.68 93.22 373.68 113.71 372.45 113.71 359.2 97.23 359.26 103.29 359.26 113.71 357.21 113.71 357.21 93.22 358.49 93.22 371.75 109.84"/>
  <path class="cls-2" d="M412.39,113.71h-2.66l-6.79-7.55h-5.29v7.55h-2.05v-20.48h9.19c4.56,0,6.76,3.04,6.79,6.5.03,3.19-1.84,6.09-6.17,6.29l6.99,7.69ZM397.64,95.16v9.07h7.02c3.28,0,4.86-1.93,4.86-4.51s-1.58-4.56-4.74-4.56h-7.14Z"/>
  <polygon class="cls-2" points="435.29 113.71 420.61 113.71 420.61 93.22 435.03 93.22 435.03 95.16 422.65 95.16 422.65 102.5 434.47 102.5 434.47 104.4 422.65 104.4 422.65 111.77 435.29 111.77 435.29 113.71"/>
  <polygon class="cls-2" points="446.12 93.22 446.12 111.77 457.5 111.77 457.5 113.71 444.07 113.71 444.07 93.22 446.12 93.22"/>
  <path class="cls-2" d="M479.06,108.97h-11.88l-2.11,4.74h-2.16l9.19-20.48h2.05l9.19,20.48h-2.16l-2.1-4.74ZM468,107.09h10.24l-5.12-11.65-5.12,11.65Z"/>
  <polygon class="cls-2" points="494.01 95.16 486.78 95.16 486.78 93.22 503.28 93.22 503.28 95.16 496.06 95.16 496.06 113.71 494.01 113.71 494.01 95.16"/>
  <path class="cls-2" d="M529.44,103.52c-.03,5.35-3.42,10.56-10.36,10.56s-10.39-5.21-10.39-10.59c0-5.76,3.75-10.62,10.39-10.62,6.93.03,10.39,5.18,10.36,10.65M519.08,112.15c5.59,0,8.28-4.24,8.31-8.63,0-4.59-2.72-8.69-8.31-8.72-5.5,0-8.4,3.89-8.34,8.72.06,4.48,2.75,8.63,8.34,8.63"/>
  <path class="cls-2" d="M550.88,97.44c-1.2-1.93-3.72-2.57-5.88-2.6-2.51,0-5.76.73-5.76,3.75,0,2.4,2.63,3.04,5.82,3.6,4.04.7,8.13,1.61,8.13,5.97-.03,4.62-4.48,5.88-8.19,5.88-3.45,0-6.96-1.26-8.54-4.54l1.79-.97c1.4,2.63,4.27,3.54,6.76,3.54s6.12-.67,6.12-3.95c.03-2.78-3.07-3.48-6.26-4.04-3.86-.67-7.67-1.52-7.67-5.5-.06-4.3,4.33-5.68,7.78-5.68,2.81,0,5.82.76,7.64,3.57l-1.73.97Z"/>
  <polygon class="cls-1" points="0 69.84 34.21 27.77 1.67 27.77 1.67 20.55 45.9 20.55 45.9 26.16 11.74 68.12 47.24 68.12 47.24 75.39 0 75.39 0 69.84"/>
</svg>